<svg width="377" height="171" viewBox="0 0 377 171" fill="none" xmlns="http://www.w3.org/2000/svg">
<g opacity="0.7">
<path d="M160.968 40.7472C160.942 38.6013 160.27 36.43 159.026 34.5762C157.77 32.7223 155.778 31.4018 153.672 30.678C151.579 29.8907 149.016 29.8653 146.885 31.0335C145.832 31.6176 144.956 32.4938 144.297 33.4207C143.624 34.3603 143.117 35.2872 142.584 36.2396C141.543 38.195 140.871 40.506 141.011 42.7915C141.137 45.0263 141.721 47.3246 143.129 49.1657C144.512 51.0196 146.669 52.2132 148.902 52.4798C151.135 52.6957 153.355 52.137 155.195 51.0323C155.22 51.0196 155.22 50.9942 155.208 50.9688C155.208 50.9434 155.169 50.9434 155.144 50.9561C153.254 51.883 151.072 52.3275 148.978 51.9973C146.897 51.6672 144.944 50.499 143.726 48.7594C141.353 45.2295 141.252 40.3663 143.408 36.6967C144.423 34.8555 145.413 32.8493 147.291 31.7954C149.143 30.7415 151.427 30.7415 153.419 31.4018C155.436 32.0239 157.326 33.1921 158.595 34.9063C159.876 36.5951 160.625 38.6648 160.841 40.7726C160.841 40.798 160.866 40.8234 160.891 40.8107C160.917 40.8107 160.929 40.7853 160.929 40.7599L160.968 40.7472Z" fill="#D8B49C"/>
<path d="M146.542 31.732C147.963 29.0782 148.75 25.98 148.496 22.8944C148.369 21.3961 148.217 19.7835 147.303 18.3233C146.846 17.6122 146.098 16.9773 145.223 16.7488C144.347 16.4948 143.459 16.571 142.66 16.7615C141.86 16.9646 141.099 17.2821 140.414 17.6503C139.691 18.0185 139.031 18.5137 138.435 19.0724C137.242 20.2025 136.418 21.5993 135.72 22.9706C134.35 25.7387 133.309 28.5449 132.155 31.3257C131.076 34.1318 129.96 36.938 129.021 39.8458C128.564 41.306 128.133 42.7916 127.943 44.3661C127.727 45.9279 127.917 47.6675 128.526 49.1277C129.072 50.588 130.074 52.1752 131.749 52.7846C133.411 53.3687 135.136 53.0005 136.519 52.1371C137.902 51.1974 138.663 49.8134 139.475 48.569C140.3 47.2866 140.998 45.9406 141.543 44.5312C141.543 44.5058 141.543 44.4804 141.518 44.4677C141.492 44.4677 141.467 44.4677 141.454 44.4931C140.845 45.8644 140.097 47.1723 139.221 48.404C138.359 49.6229 137.521 50.9308 136.24 51.718C134.971 52.4672 133.347 52.7593 131.964 52.2133C130.556 51.6673 129.693 50.2832 129.211 48.8865C128.678 47.4897 128.552 45.966 128.755 44.4804C128.958 42.9948 129.376 41.5472 129.846 40.1251C130.797 37.2808 131.939 34.4874 133.043 31.6939C134.172 28.9131 135.2 26.0688 136.506 23.3642C137.166 22.0183 137.927 20.7104 139.006 19.6692C140.071 18.6407 141.429 17.9043 142.85 17.4725C143.56 17.2821 144.322 17.2059 145.045 17.3964C145.768 17.5741 146.377 18.0566 146.796 18.6661C147.62 19.9105 147.836 21.4596 148.001 22.9325C148.382 25.9165 147.76 28.9766 146.466 31.6685C146.466 31.6939 146.466 31.7193 146.491 31.732C146.517 31.732 146.542 31.732 146.555 31.7066L146.542 31.732Z" fill="#D8B49C"/>
<path d="M135.035 25.4212C135.631 22.7166 135.378 19.6819 133.792 17.1931C132.992 15.9615 131.813 14.9584 130.43 14.3743C129.047 13.7775 127.55 13.587 126.065 13.7013C124.568 13.8156 123.096 14.3362 121.853 15.1488C120.597 15.9869 119.544 16.9011 118.567 18.0566C117.628 19.1867 116.88 20.5961 116.55 22.0436C116.207 23.4658 115.966 24.7609 115.598 26.0688C115.421 26.7164 115.243 27.3767 115.015 27.9861C114.799 28.5321 114.456 29.3067 114.279 30.0051C113.911 31.3637 113.53 32.7097 113.327 34.1699C113.112 35.6047 113.124 37.1538 113.53 38.6014C113.911 40.0616 114.647 41.3821 115.586 42.5122C116.524 43.6423 117.666 44.6073 118.973 45.2803C120.267 45.966 121.828 46.2834 123.261 46.1184C123.984 46.0549 124.682 45.9152 125.355 45.7628C126.04 45.6485 126.801 45.3692 127.359 44.8994C128.565 43.9725 129.021 42.4868 129.097 41.1155C129.097 41.0901 129.085 41.0647 129.059 41.0647C129.034 41.0647 129.009 41.0774 129.009 41.1028C128.869 42.4614 128.336 43.8582 127.194 44.6581C126.636 45.0644 125.976 45.2803 125.291 45.3692C124.606 45.4835 123.921 45.5851 123.236 45.6231C120.432 45.8644 117.831 44.201 116.156 42.0551C115.306 40.9631 114.659 39.7187 114.317 38.3855C113.962 37.0522 113.962 35.6428 114.177 34.2842C114.38 32.9255 114.774 31.5796 115.142 30.2463C115.319 29.5733 115.611 28.9639 115.877 28.3036C116.131 27.6433 116.321 26.983 116.512 26.31C116.892 24.9641 117.121 23.5928 117.438 22.2468C117.742 20.9009 118.389 19.6565 119.252 18.5772C121.028 16.5202 123.363 14.679 126.154 14.4124C127.524 14.2727 128.933 14.4124 130.214 14.933C131.495 15.4409 132.612 16.3424 133.398 17.4725C135.01 19.7327 135.416 22.6912 134.959 25.3958C134.959 25.4212 134.972 25.4466 134.997 25.4466C135.022 25.4466 135.048 25.4339 135.048 25.4085L135.035 25.4212Z" fill="#D8B49C"/>
<path d="M117.362 20.7358C117.514 18.8946 117.362 17.0154 116.88 15.2123C116.347 13.4346 115.763 11.6443 114.609 10.0697C113.454 8.50794 111.665 7.41594 109.762 6.99692C107.846 6.5779 105.88 6.71757 104.015 7.17469C102.112 7.6191 100.323 8.6984 98.9907 10.0824C97.6332 11.4538 96.5421 12.9902 95.4763 14.5012L93.9031 16.7741C93.3829 17.536 92.8374 18.3867 92.4695 19.3263C91.6955 21.1548 91.5306 23.2499 91.7336 25.1291C91.9366 27.0338 92.2918 28.8115 92.5075 30.6145C92.7359 32.4176 92.8754 34.2206 92.8754 36.0237C92.8881 36.9252 92.812 37.8141 92.9135 38.868C93.0277 39.9727 93.5859 40.9377 94.1315 41.7122C95.248 43.3375 96.7704 44.62 98.4832 45.5342C100.183 46.4231 102.15 47.0833 104.218 46.5881C104.472 46.512 104.713 46.4104 104.966 46.3088C105.207 46.1945 105.512 45.9533 105.651 45.7755C105.956 45.42 106.248 45.1279 106.59 44.8359C107.25 44.2391 107.973 43.6804 108.696 43.1344C109.407 42.5757 110.193 42.0932 110.917 41.4329C111.614 40.7599 112.185 39.9981 112.642 39.1727C113.581 37.5347 113.962 35.6047 113.771 33.7635C113.771 33.7381 113.746 33.7127 113.721 33.7254C113.695 33.7254 113.67 33.7508 113.682 33.7762C113.797 35.6047 113.365 37.4585 112.388 39.0203C111.919 39.7949 111.335 40.5314 110.65 41.1282C109.965 41.7249 109.153 42.1821 108.405 42.7154C107.656 43.2487 106.92 43.7947 106.21 44.4041C105.474 44.9755 105.004 45.8517 104.053 45.9914C102.264 46.385 100.399 45.7628 98.8257 44.8867C97.2398 43.9851 95.8316 42.7535 94.7912 41.2424C94.271 40.4933 93.8143 39.6806 93.7382 38.7664C93.6494 37.8649 93.7382 36.9379 93.7382 36.0237C93.8016 32.3287 93.1292 28.6718 92.6851 25.0403C92.4821 23.2245 92.6344 21.3579 93.3195 19.6565C94.0046 17.9677 95.2099 16.5328 96.1995 14.9964C97.2525 13.4981 98.3056 11.9744 99.587 10.6665C100.856 9.35868 102.454 8.34287 104.23 7.88575C105.994 7.41594 107.859 7.25087 109.661 7.60641C111.45 7.96194 113.112 8.93966 114.241 10.3872C116.347 13.3584 117.463 17.0788 117.286 20.7358C117.286 20.7612 117.311 20.7865 117.336 20.7865C117.362 20.7865 117.387 20.7612 117.387 20.7358H117.362Z" fill="#D8B49C"/>
<path d="M93.6364 18.0438C94.1693 16.5328 94.385 14.8567 93.9917 13.2441C93.5603 11.6061 92.6849 10.2602 91.9617 8.82535C91.7714 8.46982 91.5557 8.11428 91.3147 7.77145C91.0736 7.40322 90.7437 7.08578 90.4266 6.80643C89.7795 6.23503 89.031 5.79062 88.2444 5.47318C87.4324 5.14304 86.6077 4.97797 85.745 4.90178C84.8569 4.83829 83.9307 4.96527 83.0807 5.38429C82.2179 5.82871 81.6216 6.4382 81.038 7.00959C80.4544 7.59368 79.9216 8.22856 79.4141 8.87614C78.3991 10.1713 77.5491 11.6442 76.8893 13.1425C76.2296 14.6536 75.684 16.2408 75.4937 17.9676C75.3668 19.6056 75.1512 21.0532 74.7832 22.5896C74.6183 23.3514 74.4153 24.0498 74.1616 24.8498C73.9078 25.7005 73.819 26.5893 73.7936 27.4274C73.7556 29.1035 73.9713 30.7923 74.3899 32.3795C74.5929 33.154 74.7706 33.954 75.1258 34.792C75.481 35.6428 76.0646 36.3792 76.7244 36.9633C78.0692 38.1823 79.8454 38.7029 81.4821 38.8806C83.1695 39.0838 84.9584 38.868 86.4935 38.0299C86.6838 37.9156 86.8615 37.8394 87.0898 37.6617C87.2801 37.5093 87.4197 37.3569 87.5719 37.1919C87.8638 36.8871 88.1175 36.5697 88.3712 36.2649L89.881 34.3984C90.3758 33.7635 90.8579 33.1159 91.302 32.4303C91.746 31.7573 92.114 30.9446 92.2662 30.1447C92.5834 28.5321 92.4819 26.8687 92.0251 25.3323C92.0251 25.3069 91.9871 25.2942 91.9617 25.2942C91.9363 25.2942 91.9236 25.3323 91.9236 25.3577C92.317 26.8941 92.355 28.5321 91.9744 30.0685C91.6192 31.643 90.49 32.8493 89.4877 34.0809L87.9272 35.8967C87.3816 36.4681 86.9122 37.1538 86.189 37.4839C84.7807 38.2204 83.1314 38.3854 81.5709 38.1569C80.0104 37.9537 78.4372 37.4331 77.2572 36.3665C76.6736 35.8332 76.1788 35.1983 75.887 34.4746C75.5825 33.7508 75.4049 32.9636 75.2146 32.189C74.834 30.6526 74.6437 29.0527 74.6944 27.4655C74.7198 26.6782 74.8086 25.8783 75.037 25.1291C75.278 24.3673 75.5191 23.6054 75.6967 22.8181C76.0647 21.2563 76.2803 19.6564 76.3818 18.0692C76.5341 16.4947 77.0416 14.9583 77.6632 13.4981C78.2849 12.0379 79.0842 10.6411 80.0484 9.38405C80.5305 8.74917 81.038 8.13968 81.5963 7.56829C82.1418 6.99689 82.7127 6.4128 83.3978 6.04457C84.8188 5.30811 86.5316 5.54936 87.9906 6.05727C89.475 6.60327 90.7818 7.65717 91.505 9.0793C92.2789 10.4633 93.2177 11.7966 93.6872 13.3203C94.1185 14.8567 93.9917 16.4947 93.5222 18.0184C93.5222 18.0438 93.5222 18.0692 93.5603 18.0819C93.5857 18.0819 93.611 18.0819 93.6237 18.0565L93.6364 18.0438Z" fill="#D8B49C"/>
<path d="M75.9253 19.0978L75.7223 13.9045C75.6715 12.1649 75.6589 10.4253 75.5827 8.68574C75.5193 7.8096 75.4432 6.94616 75.3036 6.05733C75.2402 5.61291 75.1514 5.16849 75.0118 4.71138C74.8976 4.24157 74.5678 3.73366 74.276 3.40352C73.6543 2.66706 72.855 2.12106 72.0303 1.70204C71.599 1.49888 71.2437 1.32111 70.7489 1.15604C70.2922 1.01637 69.8608 0.914786 69.4295 0.813204C68.5794 0.62274 67.7294 0.432275 66.8666 0.267206C66.4353 0.19102 65.9912 0.114835 65.5472 0.0640441C65.1158 0.0132535 64.5956 -0.0502346 64.0247 0.0640441C63.0732 0.254509 62.1851 0.610042 61.3477 1.15604C60.485 1.68934 59.8126 2.69245 59.5334 3.56859C58.8991 5.35896 58.7088 7.09853 58.4931 8.85081C58.3028 10.5904 58.1378 12.33 58.0617 14.0695L57.846 19.301C57.7826 21.0405 57.846 22.8055 57.846 24.5578L57.8714 27.1862L58.0744 29.7892C58.2647 31.5161 58.3916 33.3572 59.3812 35.0968C59.8887 35.9349 60.7007 36.6967 61.7156 36.9761C62.6672 37.2427 63.5426 37.2808 64.4053 37.357C66.1435 37.4586 67.8562 37.649 69.6578 37.5856C70.5459 37.5221 71.5101 37.3951 72.3348 36.8237C73.1595 36.265 73.5528 35.2873 73.705 34.4365C73.8827 33.5604 73.9715 32.7097 74.0857 31.8462L74.2506 29.2432C74.2506 29.2432 74.2379 29.1924 74.2125 29.1924C74.1872 29.1924 74.1618 29.2178 74.1618 29.2432L73.8954 31.8208C73.7558 32.6716 73.6289 33.535 73.4259 34.3731C73.2356 35.1984 72.855 36.0364 72.1191 36.5063C71.396 36.9761 70.5079 37.0649 69.6578 37.103C67.9324 37.1157 66.2069 36.8999 64.4814 36.7602C63.6187 36.6713 62.756 36.5951 61.9313 36.3539C61.1066 36.1126 60.4596 35.465 60.0282 34.7413C59.2036 33.2303 59.0767 31.4399 58.9118 29.7384L58.7215 27.1481V24.5451C58.7341 22.8182 58.6834 21.0786 58.7595 19.3517L59.0133 14.1584C59.0767 12.4315 59.2163 10.692 59.3939 8.97778C59.5969 7.2636 59.7872 5.52403 60.3454 3.89873C60.8275 2.18455 62.5403 1.24492 64.177 0.902088C65.0016 0.762414 65.877 0.965576 66.7271 1.09255C67.5771 1.23223 68.4272 1.40999 69.2772 1.57506C70.1273 1.72743 70.9519 1.96869 71.7258 2.34962C72.4998 2.71785 73.2356 3.20036 73.7939 3.84794C74.4155 4.45743 74.5678 5.34626 74.7327 6.1843C74.8849 7.03504 74.9738 7.89848 75.0626 8.76192C75.2021 10.4888 75.2909 12.2157 75.4051 13.9553L75.8111 19.1486C75.8111 19.1486 75.8365 19.1994 75.8619 19.1867C75.8872 19.1867 75.9126 19.1613 75.8999 19.1359L75.9253 19.0978Z" fill="#D8B49C"/>
<path d="M30.3276 12.9902C31.5456 9.4857 33.8292 6.2986 36.9376 4.43205C40.0079 2.5147 43.8268 1.93061 47.2777 2.85754C50.6905 3.74637 53.9638 5.82878 55.7527 8.80003C57.4528 11.8475 57.6051 15.6568 57.4401 19.2756C57.3767 21.1167 57.1737 22.9325 56.958 24.799C56.7423 26.6783 56.6281 28.5448 56.3744 30.3606C56.1207 32.151 55.7527 33.9667 54.7124 35.1984C54.2049 35.8079 53.5578 36.2777 52.7586 36.519C52.3653 36.6586 51.9719 36.7221 51.5152 36.8237C51.0331 36.8999 50.5637 37.0015 50.0942 37.1031C48.2292 37.5348 46.453 38.1316 44.6768 38.5633C42.9006 38.995 41.061 39.3124 39.3989 38.868C38.5616 38.6522 37.813 38.2204 37.2548 37.5348C36.7092 36.8364 36.151 36.0491 35.7323 35.2619C34.8569 33.6493 34.4002 31.8081 34.3368 29.9416C34.3368 29.9162 34.3114 29.8908 34.286 29.8908C34.2606 29.8908 34.2352 29.9162 34.2352 29.9416C34.2352 31.8208 34.6285 33.7001 35.4532 35.3889C35.8719 36.2269 36.3794 37.0142 36.9376 37.776C37.5085 38.5379 38.3459 39.0712 39.2467 39.3505C41.0736 39.8965 43.0021 39.5664 44.8164 39.1728C46.6433 38.7664 48.4322 38.2077 50.2592 37.8268C51.16 37.6237 52.0988 37.5475 53.0123 37.2681C53.9258 37.0142 54.7378 36.4301 55.3467 35.719C56.5774 34.2461 56.9453 32.3033 57.2245 30.4749C57.4909 28.621 57.6177 26.7545 57.8461 24.9006C58.0745 23.0468 58.3029 21.1802 58.379 19.3137C58.4678 17.4471 58.4297 15.5552 58.176 13.7013C57.9223 11.8475 57.4401 9.99361 56.4886 8.35561C54.4967 5.14311 51.0711 2.98452 47.4299 2.13377C43.776 1.24494 39.7795 1.94331 36.6458 4.01302C33.4867 6.08274 31.3045 9.40952 30.2134 12.9649C30.2134 12.9902 30.2134 13.0156 30.2388 13.0283C30.2641 13.0283 30.2895 13.0283 30.3022 12.9902H30.3276Z" fill="#D8B49C"/>
<path d="M25.9757 32.7986C25.8362 34.0683 25.9757 35.3508 26.2802 36.6079C26.4325 37.2554 26.8511 37.8776 27.3459 38.3347C27.8534 38.8553 28.7669 39.0585 29.4647 38.8172C30.1752 38.6014 30.7207 38.2078 31.2536 37.8522L32.7888 36.7221C33.2963 36.3285 33.8291 35.9095 34.2731 35.3C34.7045 34.6905 34.9456 33.9668 35.0344 33.2557C35.1993 31.8209 34.8568 30.4749 34.4381 29.2559C34.0067 28.0116 33.5373 26.9069 33.1947 25.7133C32.4716 23.3515 31.9894 20.9136 31.6088 18.4502C31.1775 15.9996 30.8603 13.5109 30.5558 11.0221L30.1244 7.27633C29.9849 6.04466 29.8834 4.7495 29.5281 3.45434C29.3505 2.80676 29.1348 2.17188 28.7542 1.537C28.5766 1.21956 28.3228 0.914813 28.0057 0.66086C27.6885 0.39421 27.2064 0.22914 26.8385 0.216443C26.0899 0.17835 25.4556 0.305326 24.8085 0.445C24.504 0.521186 24.1868 0.584674 23.8443 0.698953C23.5017 0.813232 23.1084 1.02909 22.8674 1.35923C22.3472 2.0576 22.3979 2.79406 22.3853 3.42894C22.3979 4.07652 22.4614 4.69871 22.5375 5.33359L22.9816 9.09209C22.9816 9.09209 23.0069 9.14288 23.0323 9.13018C23.0577 9.13018 23.0704 9.10478 23.0704 9.07939L22.8293 5.30819C22.7786 4.68601 22.7659 4.05113 22.7786 3.42894C22.8039 2.81946 22.842 2.14648 23.2353 1.67667C23.6286 1.19416 24.301 1.11797 24.91 0.978301C25.519 0.864022 26.1534 0.762441 26.7624 0.825929C27.384 0.864022 27.8661 1.33383 28.1579 1.87983C28.4624 2.41313 28.6527 3.02262 28.805 3.63211C29.0968 4.85108 29.1729 6.10814 29.2998 7.36521L29.6804 11.1237C29.9468 13.6251 30.2513 16.1266 30.6573 18.6153C31.076 21.104 31.5961 23.5801 32.3574 25.9799C33.0552 28.3798 34.4635 30.6527 34.2731 33.1922C34.2224 33.8144 34.0194 34.4112 33.6895 34.9318C33.347 35.4397 32.8649 35.8587 32.3828 36.2523C31.3932 37.0015 30.4543 37.9157 29.2998 38.3601C28.7162 38.576 28.0564 38.4617 27.587 38.0427C27.1049 37.6491 26.737 37.1285 26.5467 36.5317C26.1787 35.3381 25.9884 34.081 26.0519 32.824C26.0519 32.7986 26.0392 32.7732 26.0011 32.7732C25.9757 32.7732 25.9504 32.7986 25.9504 32.824L25.9757 32.7986Z" fill="#D8B49C"/>
<path d="M24.7449 40.5695C25.4046 39.833 25.5442 38.8172 25.6965 37.903C26.1024 35.0841 26.242 32.2144 26.1659 29.3702C26.001 25.599 26.242 21.523 24.4277 18.1074C22.9814 14.425 24.3516 10.5523 22.4993 6.83186C21.5731 4.78754 18.9596 4.00029 16.9296 4.24154C12.819 4.15266 8.45456 6.98423 7.89632 11.2887C7.24928 17.1677 9.90092 22.7547 11.5249 28.1639L13.3011 33.5604C14.3922 36.0745 13.872 39.7441 16.6886 41.2298C19.1499 42.5884 22.6769 42.6646 24.7449 40.5822V40.5695ZM24.6688 40.506C22.0679 43.0455 16.4983 42.4233 14.9504 38.995C14.3415 37.2173 14.3034 35.2619 13.6563 33.4715L12.0324 28.0115C10.5733 22.5896 8.15007 17.1296 8.77174 11.4157C9.5076 6.52712 15.3437 4.11457 19.7462 5.39703C22.5881 6.52712 22.6769 10.0825 22.9814 12.6982C23.0829 14.5774 23.159 16.5329 23.9457 18.2978C24.8211 19.9993 25.43 21.7643 25.5442 23.6943C26.001 28.4051 26.2167 33.1668 25.5696 37.8776C25.4301 38.7918 25.3032 39.7949 24.6688 40.506Z" fill="#D8B49C"/>
<path d="M10.5482 24.2785C8.98763 20.4311 6.93227 16.7615 4.25527 13.4982C3.57016 12.6982 2.79624 11.9237 1.90813 11.3015C1.03272 10.692 0.106561 10.1333 -0.895729 9.72699C-2.90031 8.88894 -5.2855 8.72387 -7.39157 9.40955C-8.44461 9.73968 -9.45957 10.1841 -10.3857 10.9206C-11.2738 11.6824 -11.8828 12.4443 -12.6441 13.13C-13.3799 13.8156 -14.1538 14.4886 -14.9531 15.0854C-15.3591 15.3901 -15.7524 15.6314 -16.2346 16.0123C-16.742 16.4186 -17.0846 16.8884 -17.4018 17.3456C-18.6578 19.2375 -19.2668 21.4977 -19.0638 23.7833C-18.9496 24.9387 -18.5944 25.98 -18.2899 26.9704C-17.9727 27.9862 -17.5794 28.9893 -17.1353 29.967C-16.2345 31.9097 -15.0673 33.7128 -13.8747 35.4143C-12.6948 37.1412 -11.35 38.8173 -9.92901 40.3537C-9.21853 41.1282 -8.4446 41.9028 -7.61993 42.5885C-6.7572 43.2741 -5.97058 43.8709 -5.03173 44.4804C-3.12865 45.7375 -0.654652 46.0168 1.46411 45.4962C3.60825 45.001 5.47326 44.163 7.43977 43.3757C8.404 42.944 9.40628 42.4234 10.2056 41.6107C10.6116 41.2044 10.9414 40.7473 11.2079 40.2521C11.4743 39.7315 11.6266 39.1855 11.7281 38.6649C12.6288 34.5509 12.4385 30.1829 11.0176 26.272C11.0176 26.2466 10.9795 26.2339 10.9541 26.2466C10.9287 26.2466 10.9161 26.2847 10.9288 26.3101C12.2102 30.2591 12.2609 34.5509 11.2459 38.5506C11.0556 39.5664 10.5608 40.506 9.81228 41.2171C9.07642 41.9409 8.13755 42.4107 7.18601 42.8043C5.25756 43.5408 3.32914 44.3407 1.31187 44.7724C-0.692707 45.2042 -2.87491 44.9121 -4.60037 43.782C-6.31314 42.6392 -7.94982 41.3441 -9.30735 39.7823C-10.7029 38.2586 -11.9844 36.6333 -13.1516 34.9191C-14.3315 33.2176 -15.4479 31.4653 -16.3107 29.5861C-16.742 28.6465 -17.1227 27.6941 -17.4399 26.7037C-17.757 25.7133 -18.0869 24.7356 -18.2011 23.7071C-18.4041 21.6628 -17.8458 19.555 -16.7167 17.8535C-16.4249 17.4344 -16.1204 17.0154 -15.7271 16.698C-15.3338 16.3805 -14.8897 16.1012 -14.471 15.7838C-13.6463 15.1489 -12.8598 14.4759 -12.1112 13.7521C-11.35 13.0538 -10.6775 12.2411 -9.91631 11.5681C-9.12971 10.9206 -8.17819 10.4634 -7.20127 10.146C-5.24744 9.48573 -3.07792 9.58731 -1.16215 10.3365C0.753619 11.0983 2.50447 12.3046 3.84931 13.8664C6.57706 16.9773 8.74656 20.5581 10.4213 24.342C10.4213 24.3674 10.4593 24.3801 10.4847 24.3674C10.5101 24.3674 10.5228 24.3293 10.5101 24.3039L10.5482 24.2785Z" fill="#D8B49C"/>
<path d="M163.226 40.887C162.604 40.341 161.64 40.2648 160.892 40.6457C160.511 40.8489 160.244 41.2171 160.054 41.5727C159.864 41.9155 159.686 42.3599 159.737 42.7789C159.737 42.9694 159.724 43.1599 159.699 43.3503C159.661 43.5789 159.661 43.5281 159.509 43.5789C159.204 43.617 158.747 43.5154 158.278 43.6551C157.352 43.9598 156.755 44.7471 156.502 45.6613C156.375 46.1311 156.438 46.7152 156.679 47.1596C156.895 47.604 157.225 47.9469 157.314 48.1627C157.352 48.277 157.314 48.2516 157.314 48.2516C157.301 48.2516 157.314 48.2262 157.212 48.2897C157.009 48.3786 156.565 48.4548 156.134 48.6579C155.69 48.8357 155.182 49.2166 154.89 49.7245C154.599 50.2198 154.497 50.7785 154.51 51.2991C154.523 52.3276 155.043 53.3942 155.956 53.991C156.87 54.537 157.935 54.6893 158.95 54.3719C159.458 54.2195 159.965 53.8894 160.295 53.4196C160.625 52.9624 160.79 52.4545 160.853 51.972C161.006 51.0197 160.65 49.9404 160.118 49.2674C160.003 49.1024 159.889 48.9373 159.851 48.8611C159.826 48.7849 159.826 48.9627 159.75 48.9627C159.724 48.95 159.991 48.8611 160.206 48.7595C160.435 48.6453 160.638 48.5056 160.815 48.3405C161.539 47.731 161.818 46.6517 161.64 45.8264C161.577 45.4201 161.462 45.001 161.298 44.6201C161.259 44.5312 161.221 44.4296 161.209 44.3788C161.209 44.3154 161.196 44.3535 161.209 44.3154C161.259 44.2646 161.488 44.29 161.678 44.3154C162.515 44.4804 163.467 43.9979 163.759 43.1853C164.063 42.398 163.86 41.4457 163.226 40.9124V40.887ZM163.163 40.9632C163.746 41.4711 163.924 42.398 163.619 43.0964C163.315 43.8328 162.49 44.2392 161.703 44.0614C161.513 44.0487 161.31 43.9725 161.082 44.0741C160.98 44.1249 160.904 44.2773 160.93 44.3915C160.942 44.5058 160.98 44.5947 161.018 44.6963C161.158 45.0645 161.221 45.4581 161.272 45.8518C161.386 46.6263 161.107 47.439 160.486 47.9215C160.194 48.2008 159.826 48.2643 159.432 48.4421C159.217 48.5691 159.179 48.8611 159.268 49.0643C159.344 49.2674 159.458 49.4325 159.559 49.5976C160.003 50.2579 160.194 51.0451 160.054 51.8197C159.953 52.5942 159.458 53.3053 158.697 53.5084C157.961 53.737 157.123 53.5846 156.476 53.1783C155.829 52.7593 155.436 52.0101 155.398 51.2356C155.335 50.461 155.753 49.6865 156.489 49.3944C156.844 49.2293 157.238 49.1405 157.606 48.9373C158.012 48.7722 158.202 48.1754 157.923 47.8199C157.707 47.4644 157.403 47.1977 157.212 46.8549C157.009 46.5247 156.946 46.1311 157.022 45.7502C157.174 45.001 157.682 44.2773 158.405 43.9979C158.773 43.8582 159.166 43.9344 159.585 43.8582C159.813 43.8455 159.978 43.5662 159.953 43.363C159.965 43.1599 159.978 42.9567 159.965 42.7535C159.915 42.3599 160.054 41.9917 160.232 41.6362C160.409 41.2806 160.638 40.9505 160.98 40.76C161.653 40.3918 162.566 40.4299 163.175 40.9378L163.163 40.9632Z" fill="#D8B49C"/>
<path d="M161.526 48.9118C161.691 49.3943 162.135 49.7117 162.554 49.9403C162.96 50.1942 163.353 50.4736 163.721 50.7783C164.089 51.0831 164.431 51.4259 164.749 51.7687C165.104 52.1243 165.294 52.4798 165.827 52.8861C166.157 53.1147 166.728 53.1147 167.07 52.7972C167.4 52.4925 167.502 52.2385 167.629 52.0354C167.87 51.6164 168.111 51.2735 168.377 50.9307C168.644 50.5879 168.948 50.2831 169.265 49.9911C169.43 49.8133 169.595 49.7371 169.9 49.3181C170.255 48.7975 170.141 48.061 169.785 47.6547C169.456 47.2738 169.189 47.1722 168.961 47.0325L168.288 46.6897L167.007 46.0802C166.144 45.6866 165.358 45.2422 164.444 44.7469C164.203 44.6327 163.949 44.5057 163.607 44.4676C163.264 44.4422 162.947 44.5565 162.706 44.7088C162.211 45.039 161.983 45.5342 161.793 45.9913C161.45 46.8801 161.12 47.9214 161.513 48.8737L161.526 48.9118ZM161.615 48.8737C161.26 47.9721 161.59 46.9817 162.008 46.131C162.211 45.712 162.49 45.2929 162.909 45.0771C163.328 44.8231 163.81 44.9501 164.19 45.2294C164.99 45.7628 165.764 46.3468 166.601 46.8294C167.02 47.0706 167.438 47.3119 167.87 47.5277C168.288 47.7563 168.758 47.9594 169.05 48.2769C169.189 48.4293 169.215 48.6705 169.1 48.8356C168.986 49.0133 168.783 49.1784 168.618 49.3435C168.263 49.6863 167.958 50.0672 167.679 50.4736C167.4 50.8799 167.185 51.3116 166.994 51.756C166.893 51.9719 166.804 52.2004 166.652 52.3528C166.499 52.5052 166.246 52.5306 166.068 52.4163C165.332 51.8576 164.647 51.1212 163.835 50.5879C163.442 50.3085 163.023 50.0546 162.604 49.8133C162.186 49.5847 161.767 49.3181 161.602 48.861L161.615 48.8737Z" fill="#D8B49C"/>
<path d="M168.428 50.08C168.973 49.9022 169.468 50.3974 169.937 50.6767C170.407 51.0069 170.889 51.3624 171.384 51.6799C172.335 52.3401 173.299 53.0766 174.517 53.4575C175.114 53.648 175.761 53.7369 176.37 53.775C176.991 53.8004 177.474 53.8512 177.702 54.0416C178.006 54.2321 178.26 54.6511 178.235 54.8289C178.26 54.9939 178.07 55.3368 177.791 55.5018C177.321 55.8828 176.179 55.6923 175.139 55.413C174.188 55.1717 173.135 54.5114 172.043 54.0543C170.978 53.5591 169.849 53.1782 168.796 52.7084C168.288 52.4671 167.793 52.1243 167.781 51.5275C167.742 50.9942 167.933 50.3466 168.428 50.08ZM168.39 49.9911C167.831 50.2831 167.616 50.9561 167.641 51.5275C167.641 52.1624 168.187 52.6322 168.681 52.8861C169.722 53.4321 170.775 53.9146 171.79 54.486C172.817 55.0193 173.744 55.7685 174.86 56.1621C175.418 56.3526 175.976 56.5177 176.573 56.5938C177.156 56.6573 177.803 56.6192 178.311 56.2764C178.806 55.9336 179.199 55.3622 179.136 54.7273C179.059 54.0924 178.615 53.5972 178.095 53.3052C177.55 53.0004 176.915 53.0766 176.344 53.0893C175.761 53.102 175.19 53.0766 174.632 52.9496C173.502 52.6957 172.488 52.0862 171.498 51.5021C170.99 51.2101 170.508 50.9053 170.013 50.5752C169.772 50.4228 169.531 50.2577 169.265 50.1181C169.011 49.9911 168.681 49.8641 168.39 50.0038V49.9911Z" fill="#D8B49C"/>
<path d="M187.877 58.981C189.057 53.4957 180.594 48.2134 177.017 53.2925C176.979 53.3433 177.029 53.4068 177.08 53.3687C179.973 50.6006 184.629 52.5687 186.583 55.54C187.255 56.5685 187.661 57.7748 187.788 58.9937C187.788 59.0572 187.89 59.0445 187.877 58.9937V58.981Z" fill="#D8B49C"/>
<path d="M191.29 61.1523C192.698 56.4288 190.655 50.8419 186.113 48.4928C183.754 47.6294 181.28 47.1976 178.78 47.7563C176.395 48.4293 174.111 50.7276 173.743 52.7338C176.281 47.9341 181.077 47.477 185.72 49.3562C190.072 51.3752 191.734 56.9494 191.29 61.1523Z" fill="#D8B49C"/>
<path d="M180.265 65.4187C178.971 65.1648 177.778 64.733 176.738 64.1743C175.71 63.5776 174.835 62.8411 174.149 61.8888C172.741 60.0349 172.272 57.6478 172.944 55.0701C172.944 55.0701 172.944 55.0067 172.906 55.0067C172.881 55.0067 172.868 55.0067 172.855 55.032C172.234 56.1748 171.917 57.5081 172.018 58.8159C172.107 60.1238 172.614 61.3936 173.388 62.4602C174.175 63.5141 175.241 64.3521 176.446 64.8727C177.651 65.3806 178.971 65.5965 180.277 65.5203C180.303 65.5203 180.328 65.4949 180.315 65.4695C180.315 65.4441 180.303 65.4314 180.277 65.4314L180.265 65.4187Z" fill="#D8B49C"/>
<path d="M179.618 62.1301C179.047 61.6476 178.59 61.1905 178.108 60.7588C177.639 60.3144 177.283 59.9589 176.966 59.4636C176.636 59.0065 176.408 58.5367 176.23 58.0034C176.078 57.4701 175.989 56.8352 176.015 56.0988V56.0734C176.015 56.0734 176.002 56.0226 175.976 56.0226C175.964 56.0226 175.938 56.0226 175.938 56.048C175.609 56.6575 175.444 57.3558 175.482 58.0542C175.52 58.7526 175.786 59.4255 176.179 60.0096C176.573 60.5937 177.106 61.0635 177.702 61.4064C178.286 61.7746 178.92 62.054 179.592 62.2317C179.618 62.2317 179.643 62.2317 179.643 62.1936C179.643 62.1809 179.643 62.1555 179.63 62.1428H179.618V62.1301Z" fill="#D8B49C"/>
<path d="M175.406 50.1816C175.088 49.7118 174.682 49.3309 174.238 49.0388C173.794 48.7214 173.274 48.5817 172.767 48.4674C172.234 48.3912 171.752 48.3658 171.219 48.4674C170.699 48.5436 170.178 48.7214 169.696 49.0134H169.684C169.684 49.0134 169.658 49.0642 169.671 49.0896C169.671 49.1023 169.696 49.115 169.709 49.115C170.673 49.2039 171.663 49.2039 172.614 49.407C173.096 49.4959 173.566 49.5848 174.023 49.7499L175.38 50.2705C175.38 50.2705 175.431 50.2705 175.444 50.2451C175.444 50.2324 175.444 50.2197 175.444 50.207L175.406 50.1816Z" fill="#D8B49C"/>
<path d="M186.862 58.2192C187.611 58.8794 188.334 59.5905 189.159 60.1873C189.983 60.7714 190.871 61.292 191.798 61.7364C193.663 62.5871 195.68 63.095 197.672 63.4125C201.617 64.0728 205.576 64.5934 209.534 65.1775C213.493 65.5838 217.489 65.9647 221.346 66.625C223.262 66.9424 225.063 67.6281 226.814 68.555C228.578 69.4185 230.214 70.5613 231.775 71.7929L231.838 71.7294C230.392 70.3454 228.793 69.1264 227.055 68.1233C225.33 67.1075 223.465 66.3076 221.498 65.9012C217.578 65.0759 213.594 64.7204 209.636 64.2251L197.761 62.6633C195.781 62.4221 193.815 62.0031 191.975 61.2539C191.049 60.8857 190.161 60.4285 189.311 59.9079C188.474 59.3746 187.712 58.7271 186.913 58.143L186.85 58.2192H186.862Z" fill="#D8B49C"/>
<path d="M226.7 73.9516C224.962 72.339 222.869 71.0946 220.61 70.2439C219.468 69.8502 218.289 69.5709 217.096 69.3804L215.358 69.1138L213.607 68.7963C208.925 67.9456 204.155 67.8567 199.638 66.9679C195.071 66.1552 190.554 64.8474 186.494 62.7015C184.515 61.6095 182.473 60.2889 181.445 58.3716C180.95 57.432 180.836 56.2638 181.128 55.1845C181.432 54.1179 182.219 53.1909 183.272 52.6703C183.297 52.6703 183.31 52.6322 183.297 52.6069C183.297 52.5815 183.259 52.5688 183.234 52.5815C182.117 53.0132 181.204 53.9401 180.823 55.0702C180.443 56.2003 180.481 57.47 180.976 58.562C181.47 59.654 182.308 60.5429 183.196 61.3047C184.109 62.0666 185.086 62.7269 186.101 63.3237C190.224 65.66 194.817 66.9933 199.448 67.8821C204.104 68.7328 208.837 68.7963 213.493 69.5074C215.815 69.901 218.2 69.9645 220.433 70.701C222.678 71.3994 224.772 72.5421 226.624 74.0024C226.649 74.0151 226.675 74.0024 226.688 74.0024C226.7 73.977 226.688 73.9516 226.688 73.9389L226.7 73.9516Z" fill="#D8B49C"/>
<path d="M181.368 54.0544C180.417 55.3495 179.77 56.8733 179.377 58.4732C179.034 60.0858 179.009 61.7872 179.339 63.4506C179.668 65.114 180.404 66.6758 181.457 68.0345C182.51 69.3931 183.944 70.4597 185.441 71.1962C186.964 71.9073 188.549 72.3517 190.11 72.758C191.683 73.1389 193.231 73.5072 194.804 73.7738C196.39 74.0532 197.976 74.2817 199.562 74.4468C201.161 74.5611 202.759 74.6753 204.358 74.6372C204.383 74.6372 204.408 74.6245 204.408 74.5992C204.408 74.5738 204.383 74.5484 204.37 74.5484C201.211 74.2563 198.065 73.7738 194.956 73.0627C191.873 72.3263 188.727 71.7041 185.847 70.3581C184.426 69.6852 183.107 68.7455 182.13 67.5012C181.127 66.2822 180.442 64.8093 180.049 63.2856C179.262 60.2 179.871 56.8606 181.445 54.1179C181.457 54.0925 181.445 54.0671 181.432 54.0544C181.407 54.0544 181.381 54.0544 181.368 54.0671V54.0544Z" fill="#D8B49C"/>
<path d="M189.641 51.9592C190.91 51.8577 192.229 51.9592 193.257 52.4925C194.284 53.0512 195.337 53.8766 196.39 54.6004C198.484 56.0733 200.691 57.4446 202.95 58.7779C204.092 59.362 205.348 59.9587 206.693 60.2635C207.352 60.4032 207.949 60.5555 208.659 60.6571C209.344 60.7714 210.143 60.7206 210.816 60.5428C211.146 60.454 211.476 60.3524 211.679 60.3143C211.882 60.2889 211.894 60.2762 212.034 60.4032C212.3 60.6698 212.414 61.3174 212.491 61.9269C212.617 62.511 212.516 62.9935 212.11 63.4379C211.717 63.8569 211.146 64.1744 210.549 64.4029C210.549 64.4029 210.511 64.441 210.524 64.4664C210.524 64.4918 210.562 64.5045 210.575 64.4918C211.209 64.3521 211.831 64.0982 212.326 63.6665C212.846 63.2474 213.087 62.5364 212.998 61.8888C212.947 61.2539 212.935 60.5682 212.529 60.0095C212.326 59.7302 211.958 59.5778 211.628 59.6286C211.298 59.654 210.993 59.7556 210.676 59.8064C209.42 60.0984 208.152 59.7175 206.908 59.4254C205.665 59.1207 204.523 58.5366 203.394 57.9271C201.148 56.6828 198.966 55.3368 196.784 53.9655C195.68 53.3052 194.627 52.556 193.447 52.01C192.216 51.5529 190.872 51.5656 189.616 51.8577C189.59 51.8577 189.577 51.8831 189.577 51.9085C189.577 51.9338 189.603 51.9465 189.628 51.9465L189.641 51.9592Z" fill="#D8B49C"/>
<path d="M222.437 79.2846C223.071 78.1672 223.782 77.126 224.645 76.2372C225.469 75.3229 226.421 74.5484 227.474 73.977C228.527 73.4183 229.643 72.9485 230.811 72.7326C231.978 72.5041 233.183 72.4787 234.35 72.631C235.518 72.7453 236.647 73.0755 237.674 73.6341C238.689 74.1928 239.539 75.0182 240.275 75.9324C240.986 76.872 241.506 77.9767 241.798 79.1703C242.153 80.3512 242.267 81.621 242.267 82.8907H242.356C242.711 80.3766 242.305 77.672 240.884 75.5134C240.174 74.4468 239.222 73.5326 238.106 72.8723C236.989 72.2247 235.746 71.8311 234.465 71.6787C231.914 71.3867 229.25 71.9454 227.093 73.3421C224.911 74.7134 223.3 76.872 222.361 79.2465L222.45 79.2846H222.437Z" fill="#D8B49C"/>
<path d="M241.392 86.3826C240.821 87.3349 240.212 88.2364 239.425 88.9602C238.689 89.7221 237.852 90.3823 236.951 90.8902C235.15 91.9314 233.132 92.5536 231.077 92.4774C230.075 92.4901 228.958 92.3886 227.981 92.1854C226.979 91.9822 226.091 91.5505 225.266 90.9918C224.442 90.4204 223.807 89.6078 223.224 88.6808C222.589 87.8047 222.107 86.8397 221.663 85.8112L221.574 85.8366C221.841 86.9159 222.247 87.9571 222.78 88.9221C223.3 89.8998 223.921 90.8521 224.797 91.5632C226.535 93.0488 228.882 93.3663 231.064 93.4425C233.297 93.4425 235.505 92.7695 237.357 91.5251C239.209 90.2935 240.694 88.5031 241.48 86.4334L241.392 86.3953V86.3826Z" fill="#D8B49C"/>
<path d="M226.116 80.1226C227.144 79.056 228.26 78.1925 229.44 77.5703C230.646 76.9862 231.876 76.6942 233.132 76.872C234.388 76.9989 235.543 77.5449 236.418 78.4719C237.281 79.4115 237.903 80.6686 238.068 82.1415H238.156C238.321 80.694 237.903 79.1829 237.002 78.0148C236.114 76.8339 234.705 76.0974 233.234 75.9323C231.762 75.7419 230.265 76.1482 229.034 76.9355C227.791 77.7227 226.789 78.8274 226.027 80.0718L226.104 80.1226H226.116Z" fill="#D8B49C"/>
<path d="M237.218 85.8493C236.406 86.7635 235.492 87.3984 234.528 87.792C233.551 88.1602 232.511 88.2999 231.42 88.2999C230.874 88.3253 230.278 88.2999 229.707 88.2999C229.136 88.2999 228.603 88.2745 228.096 88.211C227.106 88.0714 226.193 87.5634 225.685 86.4207H225.596C225.685 87.0301 225.939 87.6015 226.345 88.046C226.764 88.4904 227.309 88.7824 227.893 88.9348C229.06 89.2395 230.253 89.2395 231.432 89.2649C232.612 89.2522 233.83 89.0364 234.883 88.465C235.936 87.8936 236.786 86.9794 237.307 85.9128L237.218 85.8747V85.8493Z" fill="#D8B49C"/>
<path d="M227.969 80.0591C225 80.0718 222.082 79.2972 219.595 77.7735C218.301 77.0244 217.058 76.326 215.941 75.3737C214.774 74.4341 213.543 73.5579 212.313 72.7072C211.044 71.8818 210.067 71.0565 209.23 69.8883C209.027 69.609 208.659 69.1391 208.151 68.9106C207.682 68.6947 207.212 68.6058 206.756 68.6058C205.842 68.6058 204.929 68.8598 204.18 69.4566C203.432 70.0407 202.924 71.0057 202.911 71.9834C202.899 72.9484 203.241 73.8246 203.723 74.5483C203.977 74.9166 204.269 75.2594 204.675 75.5514C205.081 75.8562 205.563 76.034 205.956 76.1355C206.743 76.326 207.352 76.4784 207.974 76.745C209.128 77.2148 210.245 78.2433 211.387 79.1576C212.528 80.1099 213.658 81.0622 214.736 82.0399C215.281 82.5224 215.802 83.0557 216.449 83.551C217.083 84.0208 217.667 84.4271 218.326 84.8588C219.595 85.6969 221.029 86.4206 222.589 86.7761C224.137 87.1444 225.786 87.0936 227.296 86.6492C228.806 86.2175 230.189 85.4175 231.356 84.4144C232.46 83.424 233.627 82.2177 233.995 80.6813C234.414 79.1703 234.173 77.5831 233.551 76.2244C233.551 76.199 233.513 76.1863 233.488 76.199C233.462 76.199 233.45 76.2371 233.462 76.2625C234.02 77.6212 234.173 79.183 233.716 80.5924C233.297 82.0272 232.181 83.1065 231.039 84.0335C228.781 85.9127 225.647 86.865 222.767 86.0778C221.333 85.7096 220.014 85.0112 218.783 84.1858C218.174 83.7795 217.565 83.3351 216.969 82.8907C216.385 82.4463 215.865 81.9003 215.32 81.4051C214.228 80.4019 213.099 79.4242 211.97 78.4592C210.828 77.5323 209.737 76.4657 208.342 75.8562C207.656 75.5514 206.908 75.3864 206.197 75.2213C205.474 75.0689 204.878 74.6118 204.472 74.0023C204.066 73.4055 203.787 72.6945 203.8 71.9707C203.8 71.2469 204.155 70.5486 204.726 70.1042C205.284 69.647 206.02 69.4185 206.743 69.4185C207.479 69.4058 208.177 69.7105 208.57 70.3581C209.433 71.5898 210.638 72.5421 211.907 73.304C214.431 74.8404 216.639 76.9101 219.354 78.1926C221.968 79.6274 224.987 80.2877 227.969 80.1226C227.994 80.1226 228.019 80.0972 228.019 80.0718C228.019 80.0464 227.994 80.021 227.969 80.021V80.0591Z" fill="#D8B49C"/>
<path d="M248.826 86.9793C248.319 87.5126 247.519 87.4618 246.834 87.3602C246.124 87.246 245.426 87.0809 244.715 86.9285C243.307 86.573 241.874 86.2301 240.427 86.0016L238.258 85.6968C237.547 85.608 236.849 85.4683 236.418 85.2397C235.999 85.0366 235.67 84.5541 235.492 84.0081C235.403 83.7414 235.378 83.4747 235.403 83.2843C235.441 83.0684 235.479 83.0684 235.543 83.0303C235.72 82.8653 236.494 82.8145 237.154 82.8653C237.839 82.9034 238.55 82.9922 239.273 83.0684C239.996 83.1446 240.668 83.1827 241.379 83.3224C242.102 83.4748 242.914 83.5255 243.624 83.5255C245.058 83.589 246.568 83.5509 247.951 83.6906C248.61 83.8176 249.143 84.389 249.346 85.0366C249.549 85.6968 249.321 86.4587 248.864 86.992L248.826 86.9793ZM248.89 87.0428C249.384 86.4968 249.664 85.7222 249.461 84.9858C249.27 84.2747 248.712 83.6398 247.976 83.4621C246.53 83.2335 245.083 83.1573 243.65 82.9922C242.203 82.9288 240.833 82.3955 239.374 82.2431C238.651 82.1415 237.941 82.0272 237.217 81.9637C236.507 81.9256 235.733 81.8241 235.035 82.205C234.693 82.4082 234.502 82.8145 234.49 83.1954C234.464 83.5763 234.54 83.9446 234.667 84.3001C234.921 84.9858 235.378 85.646 236.076 85.9762C236.761 86.2936 237.509 86.319 238.232 86.3825L240.402 86.5349C241.848 86.6619 243.269 86.8777 244.703 87.1571C245.413 87.284 246.124 87.4364 246.847 87.5253C247.545 87.6015 248.395 87.6396 248.928 87.0555L248.89 87.0428Z" fill="#D8B49C"/>
<path d="M247.887 87.5C247.887 88.1095 248.128 88.6936 248.547 89.1507C248.94 89.6205 249.499 89.9379 250.057 90.1284C250.602 90.2808 251.186 90.3696 251.77 90.2808C252.34 90.2173 252.899 89.976 253.355 89.5824V89.4935C252.328 89.6586 251.3 89.557 250.336 89.2269C249.372 88.9475 248.509 88.3126 247.963 87.4619L247.887 87.5127V87.5Z" fill="#D8B49C"/>
<path d="M254.84 84.935C254.434 83.7034 253.356 82.8653 252.112 82.5479C251.516 82.4209 250.844 82.3574 250.159 82.586C249.499 82.7891 248.966 83.2843 248.712 83.8811L248.776 83.9573C249.207 83.6272 249.727 83.3986 250.26 83.3351C250.793 83.259 251.351 83.3605 251.884 83.4875C252.95 83.7288 253.939 84.3002 254.764 85.0239L254.827 84.9477L254.84 84.935Z" fill="#D8B49C"/>
<path d="M259.078 84.6684C259.991 84.3763 260.537 83.2843 260.27 82.3574C260.055 81.4051 259.23 80.6686 258.266 80.4654C257.327 80.275 256.185 80.5797 255.601 81.4812C255.31 81.913 255.145 82.4844 255.271 83.0558C255.424 83.6145 255.792 84.097 255.652 84.0843C255.792 84.0335 255.043 84.3255 254.662 84.7064C254.282 85.0747 253.965 85.4937 253.749 86.0524C253.521 86.5984 253.571 87.3602 253.863 87.8935C254.13 88.4142 254.536 88.8332 254.675 89.049C254.688 89.0744 254.675 89.0998 254.675 88.9601C254.675 88.8332 254.751 88.6935 254.827 88.6427C254.942 88.5792 254.713 88.6681 254.485 88.6808C254.244 88.7189 253.939 88.7697 253.609 88.9221C253.28 89.0744 252.962 89.3665 252.772 89.6839C252.404 90.3823 252.379 90.9918 252.569 91.6774C252.671 92.0076 252.861 92.325 253.039 92.5409C253.216 92.7313 253.419 93.0107 253.318 92.8583C253.254 92.7313 253.292 92.4139 253.419 92.2996C253.546 92.1727 253.559 92.2107 253.495 92.2234C253.381 92.2742 253.115 92.2996 252.747 92.4774C252.556 92.5663 252.315 92.7313 252.138 93.0107C251.96 93.29 251.935 93.6075 251.96 93.836C252.024 94.3059 252.201 94.5979 252.379 94.8518C252.734 95.3344 253.242 95.7407 253.812 95.9438C254.371 96.147 254.942 96.2232 255.601 96.0962C255.919 96.02 256.325 95.8804 256.616 95.4232C256.895 94.9407 256.819 94.509 256.743 94.217C256.654 93.9249 256.527 93.6329 256.324 93.3662C256.134 93.125 255.817 92.8964 255.754 92.8456C255.716 92.8329 255.868 92.9091 255.842 93.2139C255.817 93.3408 255.741 93.4551 255.677 93.5059C255.614 93.5567 255.589 93.5567 255.576 93.5567C255.576 93.5567 255.703 93.5186 255.804 93.4932C256.033 93.4424 256.274 93.3916 256.515 93.3154C256.756 93.2392 256.959 93.1758 257.2 93.0869C257.314 93.0361 257.479 92.9853 257.631 92.8583C257.758 92.7567 257.872 92.6425 257.961 92.5155C258.316 92.0076 258.38 91.4489 258.342 90.9156C258.278 90.395 258.113 89.8617 257.669 89.4681C257.454 89.2903 257.187 89.176 256.959 89.1125L256.807 89.0617C256.807 89.0617 256.769 89.049 256.794 89.0617C256.794 89.0744 256.857 89.0998 256.87 89.2141C256.87 89.3157 256.807 89.3792 256.781 89.3919C256.73 89.4046 256.921 89.3538 257.01 89.3411C257.479 89.2522 257.948 89.0617 258.342 88.7697C259.166 88.1729 259.42 87.0809 259.217 86.154C259.116 85.6842 258.837 85.2524 258.481 84.9604C257.822 84.4906 258.684 84.808 259.078 84.6176V84.6684ZM259.052 84.5795C258.837 84.643 258.621 84.643 258.393 84.6303C258.329 84.6303 258.278 84.6303 258.202 84.643C258.101 84.6684 258.101 84.8207 258.151 84.8588C258.228 84.9604 258.316 85.0239 258.405 85.1128C258.748 85.4048 258.989 85.8111 259.078 86.2429C259.243 87.1063 258.976 88.1221 258.228 88.6427C257.86 88.8967 257.428 89.0363 256.972 89.1125C256.857 89.1379 256.756 89.1252 256.616 89.2014C256.553 89.2141 256.566 89.3665 256.616 89.3665C256.654 89.3919 256.68 89.4046 256.705 89.4173L256.87 89.4808C257.086 89.5569 257.276 89.6585 257.441 89.7982C258.05 90.4204 258.075 91.5505 257.581 92.2488C257.327 92.6171 256.832 92.6552 256.401 92.7821C256.185 92.8329 255.957 92.871 255.728 92.9091C255.614 92.9345 255.5 92.9345 255.373 92.9853C255.322 92.998 255.221 93.0488 255.208 93.1631C255.195 93.2647 255.259 93.3408 255.297 93.3789C255.677 93.671 255.957 94.0011 256.045 94.4455C256.096 94.6614 256.096 94.8899 255.995 95.0423C255.88 95.2074 255.677 95.309 255.474 95.3471C254.612 95.4994 253.648 95.1312 253.153 94.3947C252.886 94.0646 252.747 93.5186 253.178 93.3535C253.368 93.2646 253.597 93.2393 253.825 93.1631C253.939 93.125 254.066 93.0869 254.168 92.9726C254.269 92.871 254.295 92.6806 254.244 92.5536C253.977 92.1092 253.597 91.8679 253.483 91.4235C253.356 91.0172 253.368 90.5347 253.571 90.1664C253.787 89.7855 254.218 89.6204 254.662 89.5569C254.878 89.5061 255.119 89.5062 255.348 89.3538C255.601 89.1887 255.563 88.8078 255.411 88.63C255.132 88.2364 254.789 87.9443 254.574 87.5507C254.358 87.1698 254.295 86.7127 254.447 86.2809C254.586 85.8619 254.84 85.4683 255.145 85.1509C255.297 84.9985 255.474 84.8588 255.677 84.7445C255.855 84.643 256.134 84.5287 256.198 84.2493C256.274 83.9954 256.147 83.7287 256.033 83.551C255.919 83.3478 255.804 83.1573 255.741 82.9542C255.627 82.5352 255.716 82.0653 255.944 81.6844C256.388 80.8972 257.39 80.5416 258.266 80.694C259.141 80.8464 259.94 81.5193 260.156 82.3955C260.422 83.2589 259.94 84.2874 259.09 84.5795H259.052Z" fill="#D8B49C"/>
<path d="M361.552 175.126C362.313 175.075 363.125 174.961 363.785 174.441C364.102 174.187 364.356 173.818 364.47 173.412C364.572 173.018 364.648 172.676 364.8 172.345C364.952 172.015 365.143 171.698 365.371 171.457C365.587 171.215 365.929 171.012 366.234 170.657C366.513 170.314 366.716 169.882 366.767 169.412C366.817 168.943 366.729 168.536 366.652 168.143C366.297 166.644 366.043 165.184 366.043 163.711L366.081 162.568C366.081 162.124 365.98 161.629 365.84 161.235C365.549 160.435 365.13 159.711 364.584 159.051C364.026 158.403 363.354 157.845 362.504 157.477C361.578 157.134 360.804 157.134 360.03 157.045C358.495 156.931 356.896 156.931 355.348 156.931L350.73 157.337C349.981 157.4 349.233 157.451 348.484 157.464C347.761 157.489 346.975 157.426 346.099 157.527C345.287 157.642 344.462 157.819 343.689 158.124L341.532 158.962C340.111 159.508 338.677 160.041 337.243 160.537C336.495 160.803 335.886 160.956 335.01 161.286C334.237 161.641 333.59 162.01 332.892 162.454C331.534 163.305 330.291 164.371 329.314 165.692C328.324 167 327.677 168.587 327.525 170.225C327.385 171.888 327.817 173.463 328.197 174.923C328.591 176.396 329.136 177.983 330.227 179.164C331.293 180.345 332.727 181.12 334.224 181.475C334.249 181.475 334.275 181.475 334.287 181.437C334.287 181.412 334.287 181.386 334.249 181.373C332.79 180.954 331.42 180.129 330.456 178.961C329.453 177.793 329.009 176.282 328.68 174.796C328.337 173.31 327.969 171.799 328.134 170.276C328.312 168.765 328.933 167.317 329.885 166.124C330.824 164.917 332.016 163.94 333.31 163.14C333.957 162.733 334.63 162.365 335.328 162.06C336.025 161.794 336.787 161.603 337.51 161.349C338.969 160.854 340.403 160.334 341.836 159.8C343.283 159.28 344.678 158.619 346.201 158.467C346.949 158.365 347.723 158.416 348.484 158.391C349.258 158.365 350.019 158.315 350.781 158.251L355.348 157.807C356.871 157.807 358.406 157.781 359.928 157.87C360.689 157.934 361.463 157.959 362.174 158.213C362.872 158.505 363.481 158.975 363.988 159.534C364.483 160.105 364.889 160.765 365.155 161.464C365.485 162.162 365.358 162.937 365.371 163.711C365.409 165.26 365.726 166.771 366.12 168.257C366.335 168.981 366.373 169.806 365.878 170.403C365.65 170.707 365.32 170.911 365.066 171.215C364.813 171.507 364.622 171.863 364.483 172.219C364.191 172.93 364.267 173.793 363.62 174.276C363.049 174.771 362.263 174.936 361.514 175.012C361.489 175.012 361.463 175.037 361.476 175.063C361.476 175.088 361.501 175.101 361.527 175.101L361.552 175.126Z" fill="#D8B49C"/>
<path d="M353.458 157.489C355.171 155.559 356.528 153.248 357.201 150.683V150.722C357.569 149.084 357.683 147.547 357.556 145.922C357.417 144.309 356.96 142.735 356.351 141.262C355.107 138.329 353.293 135.573 350.73 133.529C348.193 131.497 344.729 130.304 341.367 131.04C338.018 131.802 335.48 133.897 332.994 135.713C330.532 137.579 327.931 139.471 325.902 142.011C324.899 143.281 324.024 144.677 323.428 146.201C322.844 147.725 322.514 149.338 322.4 150.925C322.273 152.525 322.336 154.137 322.666 155.724C322.996 157.299 323.656 158.861 324.747 160.092C325.8 161.311 327.145 162.302 328.667 162.81C330.19 163.33 331.865 163.279 333.336 162.759C333.362 162.759 333.374 162.721 333.374 162.695C333.374 162.67 333.336 162.657 333.311 162.67C331.839 163.127 330.215 163.102 328.769 162.556C327.322 162.01 326.066 161.019 325.115 159.813C323.136 157.375 322.806 154.036 323.098 151.001C323.351 147.903 324.569 144.919 326.549 142.544C328.502 140.132 331.053 138.303 333.539 136.462C336.039 134.672 338.525 132.64 341.558 131.942C344.59 131.256 347.8 132.297 350.21 134.202C352.633 136.132 354.473 138.735 355.729 141.554C356.351 142.963 356.833 144.462 356.998 145.998C357.15 147.534 357.087 149.109 356.808 150.62C356.249 153.134 355.006 155.47 353.382 157.451C353.369 157.477 353.369 157.502 353.382 157.515C353.407 157.527 353.433 157.527 353.445 157.515L353.458 157.489Z" fill="#D8B49C"/>
<path d="M336 133.986C339.971 130.596 344.564 126.774 345.249 121.238C345.325 120.907 345.021 120.438 344.627 120.412C344.386 120.387 344.412 120.412 344.361 120.412C343.054 120.793 342.001 121.631 340.885 122.355C333.31 127.65 326.523 134.075 320.902 141.414C320.116 142.544 314.216 149.858 318.454 148.906C320.623 148.004 322.412 146.455 324.264 145.071C324.315 145.033 324.264 144.957 324.214 144.995C316.107 150.722 315.485 149.337 321.473 141.871C326.37 135.738 332.067 130.253 338.208 125.377C340.212 123.879 342.179 122.19 344.462 121.149C344.539 121.149 344.5 121.085 344.5 121.212C344.056 126.533 339.185 130.545 335.987 133.973L336 133.986Z" fill="#D8B49C"/>
<path d="M344.919 122.393C345.363 121.034 345.363 119.396 344.513 118.114C343.714 116.857 342.699 115.816 341.697 114.762L340.162 113.238C339.629 112.73 339.172 112.222 338.474 111.74C336.85 110.889 335.176 111.232 333.767 111.765C332.346 112.298 331.078 113.06 329.847 113.797C328.604 114.546 327.373 115.371 326.218 116.285C323.909 118.101 321.854 120.145 319.786 122.139C317.782 124.171 315.625 126.253 314.153 128.869C312.681 131.357 311.146 133.732 309.751 136.31C309.408 136.97 309.078 137.656 308.888 138.455C308.71 139.268 308.748 140.106 309.015 140.893C309.294 141.668 309.687 142.277 310.042 142.9C310.41 143.522 310.765 144.157 311.171 144.766C311.996 145.972 312.948 147.153 314.204 147.966C315.447 148.791 316.982 149.121 318.416 148.906C318.441 148.906 318.467 148.88 318.454 148.855C318.454 148.829 318.429 148.817 318.403 148.817C316.982 148.956 315.523 148.563 314.369 147.725C313.201 146.887 312.339 145.719 311.59 144.5C311.222 143.89 310.88 143.255 310.524 142.633C310.182 141.998 309.814 141.376 309.598 140.703C309.395 140.03 309.37 139.294 309.548 138.608C309.725 137.922 310.055 137.275 310.398 136.652C311.844 134.176 313.392 131.751 314.889 129.313C316.31 126.812 318.416 124.818 320.446 122.799C322.488 120.78 324.506 118.736 326.739 116.946C327.855 116.044 329.035 115.232 330.253 114.482C331.471 113.733 332.702 112.971 334.021 112.425C335.315 111.879 336.85 111.613 338.132 112.248C339.274 113.086 340.276 114.14 341.329 115.105C342.369 116.095 343.422 117.085 344.234 118.254C345.084 119.422 345.16 120.984 344.793 122.342C344.793 122.368 344.793 122.393 344.831 122.406C344.856 122.406 344.881 122.406 344.894 122.368L344.919 122.393Z" fill="#D8B49C"/>
<path d="M332.993 112.273C333.196 111.613 333.26 110.876 333.006 110.191C332.778 109.479 332.194 108.946 331.61 108.578C330.392 107.841 329.162 107.308 328.096 106.496C327.563 106.102 327.068 105.683 326.624 105.213C326.168 104.743 325.812 104.21 325.343 103.626C325.102 103.347 324.797 103.029 324.404 102.826C324.011 102.623 323.592 102.508 323.173 102.483C322.298 102.42 321.486 102.762 320.864 103.143C319.583 103.918 318.568 104.87 317.566 105.823C316.563 106.788 315.586 107.753 314.635 108.756C312.706 110.737 310.905 112.832 309.091 114.889C305.538 119.015 301.745 123.18 299.233 128.247C298.941 128.894 298.649 129.58 298.522 130.354C298.383 131.142 298.484 132.005 298.941 132.754C299.207 133.161 299.563 133.402 299.842 133.592L300.692 134.164C301.25 134.545 301.795 134.951 302.341 135.357C303.445 136.145 304.46 137.059 305.627 137.859C306.211 138.252 306.985 138.519 307.695 138.392C308.418 138.278 309.04 137.897 309.547 137.427C309.573 137.414 309.573 137.376 309.547 137.363C309.535 137.338 309.497 137.338 309.484 137.363C308.976 137.808 308.355 138.138 307.67 138.202C306.997 138.278 306.338 138.024 305.792 137.617C304.701 136.805 303.724 135.827 302.646 134.976C302.113 134.545 301.567 134.126 301.009 133.719C300.476 133.3 299.816 132.983 299.448 132.437C298.738 131.218 299.271 129.758 299.867 128.589C301.148 126.177 302.734 123.917 304.422 121.771C306.135 119.625 307.987 117.606 309.788 115.536C311.59 113.467 313.354 111.371 315.244 109.378C316.183 108.375 317.147 107.397 318.124 106.445C319.114 105.492 320.103 104.54 321.245 103.804C321.816 103.435 322.463 103.169 323.135 103.194C323.808 103.22 324.442 103.537 324.874 104.07C325.711 105.137 326.637 106.203 327.804 106.94C328.946 107.727 330.253 108.21 331.445 108.857C332.029 109.187 332.575 109.645 332.816 110.292C333.082 110.914 333.057 111.625 332.892 112.286C332.892 112.311 332.892 112.336 332.93 112.349C332.955 112.349 332.981 112.349 332.993 112.311V112.273Z" fill="#D8B49C"/>
<path d="M318.01 106.038C318.746 103.423 318.429 100.49 317.173 98.0008C316.551 96.7565 315.714 95.601 314.635 94.6487C313.569 93.709 312.148 92.9726 310.588 92.9853C309.814 92.9472 309.065 93.163 308.355 93.4043C307.67 93.6963 307.036 94.0519 306.452 94.4582C305.285 95.2709 304.27 96.2232 303.305 97.2009C301.377 99.1563 299.652 101.226 297.913 103.296C297.089 104.362 296.175 105.353 295.389 106.546C294.627 107.702 293.955 108.895 293.321 110.102C292.065 112.552 290.948 114.965 290.047 117.619C289.832 118.317 289.73 119.168 289.946 119.942C290.136 120.768 290.631 121.352 290.897 121.872C291.177 122.406 291.405 123.041 291.481 123.599C291.506 123.866 291.544 124.361 291.671 124.691C291.798 125.047 291.95 125.39 292.153 125.694C292.965 126.939 294.158 127.764 295.439 128.297C296.759 128.805 298.193 128.843 299.499 128.501C299.525 128.501 299.537 128.475 299.537 128.45C299.537 128.424 299.512 128.412 299.487 128.412C298.18 128.691 296.784 128.564 295.566 128.031C294.361 127.472 293.257 126.609 292.585 125.453C292.255 124.869 292.039 124.234 292.039 123.561C291.976 122.875 291.747 122.228 291.456 121.618C291.164 121.009 290.745 120.463 290.618 119.803C290.466 119.155 290.555 118.482 290.771 117.847C291.722 115.346 292.851 112.882 294.107 110.521C294.742 109.34 295.414 108.172 296.163 107.054C296.898 105.937 297.825 104.946 298.662 103.893C300.375 101.823 302.075 99.7277 303.953 97.7977C304.879 96.8327 305.856 95.9057 306.947 95.1312C308.025 94.3566 309.268 93.7344 310.613 93.7217C311.945 93.6836 313.227 94.2804 314.255 95.1312C315.27 95.9946 316.107 97.0739 316.741 98.2548C318.061 100.591 318.517 103.397 317.921 106.026C317.921 106.051 317.921 106.077 317.959 106.077C317.985 106.077 318.01 106.077 318.01 106.038Z" fill="#D8B49C"/>
<path d="M301.021 100.325C301.275 98.6358 301.364 96.9089 301.275 95.1947C301.161 93.4805 300.996 91.7537 300.311 90.0649C299.562 88.3888 298.141 87.119 296.708 86.1667C295.249 85.1636 293.587 84.4144 291.81 84.0716C290.047 83.7161 288.169 83.7922 286.431 84.3001C285.556 84.5414 284.718 84.8715 283.906 85.2906C283.082 85.7096 282.32 86.2937 281.673 86.9159C280.392 88.1729 279.326 89.5062 278.248 90.8394L275.051 94.8519C274.023 96.2232 272.983 97.5819 272.069 99.131C271.13 100.756 270.699 102.483 270.407 104.248C270.28 105.137 270.217 106.038 270.28 106.965C270.344 107.854 270.471 108.743 270.712 109.632C271.168 111.397 272.145 113.06 273.554 114.279C274.264 114.889 275.038 115.333 275.799 115.752C276.548 116.159 277.309 116.59 278.121 116.933C279.72 117.67 281.483 118.076 283.17 118.304C284.871 118.546 286.761 118.546 288.36 117.733C289.958 116.958 291.163 115.574 291.899 114.038C291.899 114.013 291.899 113.987 291.874 113.975C291.849 113.975 291.823 113.975 291.81 114C291.024 115.498 289.793 116.793 288.233 117.466C286.672 118.177 284.909 118.114 283.247 117.809C279.859 117.377 276.725 115.765 274.048 113.721C271.498 111.422 270.75 107.676 271.27 104.375C271.562 102.712 272.006 101.036 272.868 99.5881C273.744 98.1406 274.784 96.7819 275.825 95.436L278.971 91.4108C280.037 90.0903 281.09 88.7443 282.295 87.5507C283.488 86.3318 285.048 85.5826 286.672 85.1001C288.296 84.6176 290.022 84.516 291.696 84.808C293.371 85.0874 294.957 85.7604 296.378 86.6873C297.811 87.5888 299.118 88.7443 299.867 90.2807C300.565 91.8298 300.806 93.544 300.983 95.2201C301.136 96.9089 301.11 98.6231 300.933 100.312C300.933 100.337 300.945 100.363 300.971 100.363C300.996 100.363 301.021 100.35 301.021 100.325Z" fill="#D8B49C"/>
<path d="M283.589 85.8111C284.389 85.0239 284.998 83.9192 284.972 82.6875C284.972 81.4685 284.363 80.2876 283.513 79.4496C282.638 78.6115 281.509 78.0402 280.278 77.837C279.656 77.7354 278.971 77.7735 278.337 78.0021C277.702 78.2306 277.157 78.6242 276.7 79.056C275.799 79.9321 275.203 80.9479 274.632 81.9256L272.957 84.8334C271.828 86.738 270.572 88.5538 269.265 90.395C268.009 92.2488 266.753 94.1535 265.599 96.0962C265.015 97.0739 264.444 98.0516 263.911 99.0293C263.353 99.969 262.782 101.112 262.541 102.305C262.275 103.499 262.325 104.756 262.592 105.911C262.731 106.496 262.934 107.092 263.302 107.638C263.658 108.184 264.254 108.654 264.914 108.794C266.233 109.06 267.413 108.527 268.377 107.918C269.354 107.27 270.141 106.419 270.775 105.48C270.788 105.454 270.775 105.429 270.775 105.416C270.75 105.404 270.724 105.416 270.712 105.416C270.014 106.292 269.189 107.067 268.238 107.638C267.286 108.184 266.157 108.591 265.079 108.311C263.962 108.032 263.442 106.838 263.239 105.784C263.023 104.692 263.023 103.55 263.302 102.47C263.556 101.378 264.102 100.401 264.673 99.4357C265.231 98.4579 265.802 97.4929 266.385 96.5406C267.565 94.6233 268.821 92.7694 270.103 90.9283C271.371 89.0871 272.64 87.2205 273.757 85.2651C274.911 83.3478 275.787 81.2146 277.271 79.5639C278.02 78.7385 279.136 78.2814 280.24 78.4465C281.331 78.5862 282.397 79.0814 283.221 79.8178C284.046 80.5416 284.655 81.5828 284.706 82.6875C284.782 83.8049 284.287 84.8969 283.564 85.7222C283.551 85.7476 283.551 85.773 283.564 85.7857C283.577 85.7984 283.615 85.7984 283.627 85.7857L283.589 85.8111Z" fill="#D8B49C"/>
<path d="M275.66 80.402C275.064 79.8306 274.404 79.3608 273.731 78.8656C273.034 78.4211 272.311 78.0275 271.575 77.6593C270.078 76.9355 268.466 76.4784 266.842 76.1356C266.018 76.0213 265.168 75.9451 264.292 75.9832C263.848 76.0086 263.391 76.0594 262.922 76.1991C262.453 76.326 261.932 76.6181 261.603 77.0371C260.473 78.637 260.27 80.1734 259.966 81.8241C259.966 81.8495 259.966 81.8749 260.004 81.8876C260.029 81.8876 260.055 81.8876 260.067 81.8622C260.346 81.113 260.626 80.3512 260.943 79.6274C261.273 78.9037 261.603 78.1418 262.135 77.5704C262.681 76.999 263.544 76.8847 264.318 76.872C265.117 76.872 265.916 76.9609 266.703 77.1006C269.862 77.6212 272.894 78.8402 275.635 80.5036C275.66 80.5163 275.685 80.5036 275.698 80.4909C275.698 80.4655 275.698 80.4528 275.698 80.4274L275.66 80.402Z" fill="#D8B49C"/>
<path d="M264 99.4737C263.137 99.3975 262.364 99.2452 261.653 99.0674C260.943 98.8642 260.296 98.5976 259.699 98.2421C259.09 97.8992 258.557 97.4548 258.037 96.9215C257.53 96.3882 257.01 95.7914 256.515 95.0804C256.515 95.0804 256.477 95.0423 256.451 95.055C256.439 95.055 256.426 95.0804 256.439 95.1058C256.807 96.7057 257.796 98.204 259.23 99.0674C260.676 99.9181 262.465 100.071 264.038 99.5753C264.064 99.5753 264.076 99.5372 264.064 99.5118C264.064 99.4991 264.038 99.4864 264.026 99.4737H264.013H264Z" fill="#D8B49C"/>
</g>
</svg>
