<svg width="539" height="885" viewBox="0 0 539 885" fill="none" xmlns="http://www.w3.org/2000/svg">
<g opacity="0.7" clip-path="url(#clip0_482_12203)">
<path d="M47.6696 75.9605C29.007 96.7087 16.3556 122.355 6.77969 148.387C-13.805 203.249 21.3533 258.881 55.3583 300.062C73.0772 321.79 94.3959 339.739 115.575 357.933C136.544 376.512 154.123 398.8 168.487 422.837C189.631 459.12 208.503 497.153 217.799 538.334C219.512 545.122 220.525 552.434 219.652 559.572C218.289 573.742 209.621 585.708 208.643 599.809C208.258 606.492 208.888 613.594 209.237 620.522C209.936 632.768 211.334 650.227 211.963 662.403C212.697 673.215 208.818 684.341 201.863 692.564L195.467 700.821C180.02 722.444 158.666 745.571 164.258 774.087C166.705 787.452 173.589 799.733 180.439 811.769C187.464 823.84 194.139 836.051 203.401 846.163C222.692 866.352 250.127 885.28 279.134 881.782C290.982 880.137 300.034 871.145 309.714 864.567C320.863 856.205 332.466 848.262 342.496 839.025C374.509 808.83 349.8 791.756 405.718 793.925C415.504 794.275 425.324 793.54 435.075 795.01C460.972 801.588 477.468 824.855 493.474 843.959C503.33 857.15 515.282 846.898 525.138 838.851C536.111 830.138 543.905 818.942 553.341 808.515C567.88 792.701 587.206 781.749 607.232 774.612C615.899 770.728 639.14 767.509 639.385 757.362C634.806 732.206 656.964 737.419 651.582 721.149C646.409 708.518 640.887 694.698 639.35 680.632C638.546 673.39 638.86 665.972 640.992 658.8C643.683 647.953 652.595 641.34 654.692 630.984C656.894 620.802 651.127 611.005 650.953 600.719C650.463 593.441 650.953 586.583 650.638 579.69C650.184 565.415 648.017 551.49 651.372 537.249C652.98 530.217 657.243 523.394 661.857 518.216C665.911 513.282 667.413 506.634 667.413 500.057C665.526 465.873 666.959 429.87 653.853 397.645C645.466 376.582 634.457 374.588 615.34 384.804C599.368 392.047 583.082 398.765 566.097 403.278C552.537 407.057 536.566 408.981 524.264 400.479C506.475 388.653 494.523 370.389 481.592 353.909C464.152 331.972 449.893 307.62 436.123 283.408C416.063 246.53 394.57 210.526 377.165 172.249C372.028 158.953 370.175 144.958 367.764 131.242C365.318 117.527 361.858 104.021 358.048 90.6207C347.913 49.4042 321.597 12.7013 277.911 4.19905C250.546 -2.16887 222.517 2.62456 194.768 4.51394C167.473 6.85817 138.047 10.9868 116.693 29.6707C106.873 39.9573 93.5222 45.3456 80.8009 50.8388C68.2893 56.9618 57.1756 65.7439 47.7395 75.9955L47.6696 75.9605ZM47.4249 75.7156C56.8611 65.429 68.0097 56.5769 80.5562 50.3839C93.3125 44.8207 106.418 39.5375 116.274 29.2158C137.697 10.427 167.229 6.19339 194.628 3.74419C208.538 2.55458 222.413 1.26001 236.357 0.385295C280.602 -2.72868 320.758 11.5816 343.719 51.3636C357.209 75.9255 363.326 103.776 368.987 130.997C371.434 144.713 373.356 158.673 378.423 171.689C395.828 209.722 417.461 245.83 437.556 282.533C451.431 306.745 465.62 330.887 483.059 352.755C495.921 369.024 507.768 387.114 525.277 398.695C543.8 410.661 566.482 401.039 585.389 394.776C598.53 390.018 611.146 384.14 623.902 378.401C627.188 377.177 630.682 376.372 634.212 376.407C661.297 376.722 666.26 437.707 668.427 458.14C668.672 472.171 669.056 486.026 670 500.022C670.035 506.984 668.427 514.297 663.919 519.86C659.34 525.108 655.566 531.056 653.958 537.914C650.743 551.56 652.98 565.73 653.434 579.585C653.783 586.583 653.329 593.581 653.818 600.509C653.993 607.576 656.579 614.119 657.802 621.012C658.746 628.01 657.523 635.357 653.679 641.34C639.035 660.234 639.909 678.848 647.038 700.611C649.03 707.294 652.211 713.522 654.587 720.134C655.775 723.423 656.16 727.272 654.657 730.596C653.294 734.025 650.219 736.194 647.598 738.363C643.578 741.652 641.551 746.971 642.076 752.079C643.124 757.362 642.705 763.135 637.567 766.354C628.76 772.232 618.031 774.017 608.315 777.761C588.744 784.793 570.047 795.465 555.822 810.825C544.394 823.98 533.63 838.011 518.917 847.773C509.446 855.12 498.926 856.45 490.993 846.058C473.938 826.01 455.485 798.299 426.582 797.249C412.673 797.004 398.659 796.409 384.784 797.284C366.051 797.074 366.156 812.644 357.804 824.89C346.585 842.944 327.783 854.071 311.287 866.666C305.625 870.76 300.034 874.959 294.127 878.702C275.919 890.494 251.839 883.601 234.295 873.699C222.168 866.736 210.984 858.024 201.583 847.668C192.112 837.276 185.367 824.855 178.412 812.819C171.597 800.713 164.608 788.257 162.056 774.367C156.36 745.221 178.063 721.359 193.86 699.491C202.806 688.75 211.439 677.134 210.041 662.333C209.167 650.402 208.293 632.663 207.42 620.522C207.105 613.559 206.476 606.562 206.895 599.564C207.874 585.394 216.611 573.288 218.009 559.327C218.848 552.399 217.904 545.402 216.227 538.649C207.07 497.607 188.303 459.61 167.369 423.467C153.11 399.5 135.705 377.282 114.841 358.703C93.7318 340.474 72.3083 322.35 54.6593 300.587C20.5145 259.265 -14.5739 203.214 6.25546 148.212C15.9362 122.11 28.6575 96.4988 47.4249 75.7156Z" fill="#D8B49C"/>
<path d="M210.6 453.067C203.82 422.452 190.12 394.216 171.842 368.884C156.709 346.072 134.551 312.972 119.314 291.664C106.313 276.549 110.192 260.42 124.661 248.174C132.489 241.176 139.619 233.723 149.23 228.825C156.394 224.766 166.564 224.976 173.659 229.665C178.202 232.044 188.897 238.762 193.405 241.526C195.537 242.82 197.599 244.045 199.451 244.605C205.113 246.249 212.172 241.666 213.815 236.383C215.038 232.744 213.815 228.195 212.033 223.647C203.4 205.138 203.715 191.352 224.649 182.675C232.967 178.896 244.744 174.978 253.237 171.584C274.416 164.586 310.867 144.957 326.349 170.394L333.898 183.69C349.555 209.791 365.282 235.963 381.988 261.399C392.927 278.299 406.347 294.988 417.391 311.048C404.739 295.128 392.437 278.894 380.799 262.239C363.535 237.082 347.668 210.981 331.697 185.019C328.831 180.681 323.484 169.135 319.395 165.986C300.627 152.83 273.542 168.33 254.355 174.593L240.131 180.051C216.156 188.903 201.723 194.711 215.213 222.492C216.995 227.181 218.708 232.429 217.1 237.572C214.619 244.885 206.021 250.133 198.438 247.999C195.921 247.229 193.719 245.864 191.588 244.535L178.622 236.487C174.253 233.933 169.919 231.099 165.132 229.7C160.239 228.51 155.066 229.63 150.558 231.834C141.506 236.418 134.237 243.87 126.723 250.553C113.408 261.889 109.563 275.815 121.551 289.985C137.068 312.238 158.386 344.917 173.414 367.939C190.959 393.341 205.567 423.116 210.53 453.172L210.6 453.067Z" fill="#D8B49C"/>
<path d="M325.93 174.698C322.82 134.426 300.068 89.9905 254.74 90.0955C213.151 87.3663 172.576 87.9961 136.579 111.543C111.031 127.813 89.6776 151.885 79.1231 180.471C66.3319 216.859 63.1516 268.117 100.337 291.14C109.074 296.458 119.104 299.642 129.344 300.971V301.321C108.655 299.432 88.3845 288.725 78.0048 270.286C67.4503 252.092 66.5067 230.12 69.1628 209.721C73.5663 167.98 99.638 130.787 134.726 108.604C170.898 85.0571 213.361 83.9725 254.95 87.4013C275.954 87.8212 295.979 98.3877 307.687 115.987C319.08 132.991 325.686 154.964 325.93 174.698Z" fill="#D8B49C"/>
<path d="M363.675 351.075C378.319 332.916 404.775 292.819 430.357 316.716C450.487 335.855 469.639 354.049 451.361 382.53C446.294 391.977 438.71 400.584 430.287 407.057C418.859 415.104 407.256 427.805 392.018 426.09C384.4 425.286 377.899 421.612 371.818 418.253C365.667 414.859 359.481 411.185 354.204 406.287C333.13 386.868 349.87 368.254 363.675 351.075ZM363.955 351.285C356.231 362.236 344.348 373.223 345.047 387.603C346.62 402.228 360.879 410.381 372.727 416.539C378.878 419.757 385.238 423.046 392.228 423.571C406.592 424.691 417.391 412.165 428.225 404.502C436.508 397.995 443.288 389.912 448.46 380.745C466.179 354.399 447.167 336.52 428.994 318.081C404.879 294.394 378.214 334.001 363.92 351.25L363.955 351.285Z" fill="#D8B49C"/>
<path d="M301.991 437.777C314.607 445.089 321.422 460.449 320.478 474.759C319.535 489.49 311.497 502.785 301.501 513.247C288.815 526.857 270.048 533.365 251.734 534.275C240.481 535.604 227.865 534.555 219.092 526.158C207.909 514.996 206.266 499.426 202.632 485.116C198.682 468.741 201.793 454.536 217.065 445.579C230.066 438.196 244.919 437.567 259.318 436.062C270.048 435.222 280.847 434.278 291.611 434.977C295.176 435.292 298.88 435.817 301.991 437.777ZM301.816 438.091C295.49 434.593 287.836 435.362 280.847 435.397C273.682 435.642 266.553 436.202 259.423 436.902C245.409 438.616 230.451 439.806 218.149 447.223C203.89 456.181 201.618 468.951 205.602 484.521C209.167 497.992 211.089 513.492 221.504 523.673C232.338 534.17 248.519 531.721 262.184 530.111C276.303 528.187 290.003 522.064 300.173 511.917C310.169 501.946 318.486 489.105 319.675 474.724C320.758 460.659 314.188 445.404 301.851 438.091H301.816Z" fill="#D8B49C"/>
<path d="M319.325 463.283C330.159 475.634 341.797 487.565 353.68 498.762C359.761 504.045 366.087 509.153 373.461 510.098C387.825 511.882 405.159 503.03 410.576 489.35C413.232 481.932 409.318 474.444 407.221 467.237C402.049 451.772 393.277 436.622 386.147 422.661C395.653 436.237 403.621 450.862 409.737 466.257C412.393 473.85 416.517 482.317 413.582 490.434C407.571 506.109 389.257 515.451 372.936 513.282C356.161 509.818 346.061 494.178 334.808 482.702C329.251 476.579 323.938 470.211 319.011 463.563L319.29 463.353L319.325 463.283Z" fill="#D8B49C"/>
<path d="M209.132 675.349C215.598 696.412 225.104 716.285 236.287 735.179C239.992 741.442 243.871 747.67 248.799 752.778C258.48 763.45 273.717 766.809 287.452 763.555C308.386 757.817 323.799 740.182 339.805 726.327C345.432 721.394 351.758 716.145 359.237 714.151C365.527 712.437 374.719 711.177 381.184 710.092C394.779 707.433 410.367 706.384 421.62 698.196C426.128 695.082 428.819 690.009 433.398 686.58C444.092 678.638 459.26 684.236 468.696 674.229C481.417 661.038 497.144 650.997 510.949 638.926C526.046 626.505 546.212 608.905 560.96 596.135C577.071 581.509 593.987 566.919 608.036 550.545C612.614 545.016 616.563 539.033 618.8 532.491C621.246 525.668 620.513 518.39 621.386 511.183C622.26 503.695 624.182 496.382 627.153 489.42C629.949 482.317 635.261 476.614 635.401 469.861C636.065 462.408 631.906 456.32 630.054 449.183C628.061 441.765 630.158 434.138 632.081 427C635.855 415.139 637.882 389.912 656.125 397.645L655.985 397.96C647.807 394.636 641.831 397.96 639 406.077C635.331 416.399 632.989 427.245 630.788 437.951C629.669 445.404 632.36 452.367 635.366 459.05C638.127 465.942 637.917 474.025 634.003 480.428C628.446 489.909 624.811 500.441 623.658 511.427C622.819 518.635 623.658 526.193 621.177 533.26C618.87 540.293 614.746 546.556 610.133 552.259C595.979 569.158 579.238 583.609 563.022 598.444C535.727 622.586 507.419 646.728 478.936 669.261C473.554 674.159 468.696 680.247 461.566 682.626C454.612 685.565 446.818 683.921 440.073 686.825C432.769 688.924 429.728 696.692 423.542 700.82C405.054 713.206 380.87 711.492 360.041 717.09C352.911 718.944 347.214 723.878 341.658 728.601C330.719 738.363 320.024 748.475 307.792 756.662C290.318 769.958 262.709 771.567 247.401 754.108C242.369 748.685 238.559 742.352 234.959 735.984C224.44 717.02 213.92 696.027 209.062 675.419L209.132 675.349Z" fill="#D8B49C"/>
<path d="M434.271 689.274C432.628 690.674 431.161 692.283 430.112 694.138C429.064 695.992 428.4 698.056 428.12 700.191V700.121C427.84 703.724 428.469 707.223 429.798 710.477C431.23 713.661 433.502 716.425 435.879 718.979C440.771 724.018 446.643 728.111 453.073 730.421C456.254 731.61 459.574 732.345 462.929 732.52C464.571 732.73 466.249 732.625 467.892 732.625C469.639 732.555 471.317 732.415 472.924 732.1C476.139 731.54 479.075 730.386 481.452 728.531C483.758 726.642 485.715 724.263 486.869 721.394C489.245 715.655 489.035 708.448 486.799 702.465C484.597 696.342 479.494 691.024 474.147 686.755C471.421 684.726 468.311 683.116 464.956 682.731C463.243 682.521 461.636 682.591 459.923 683.116C458.106 683.536 456.324 683.816 454.506 684.026C452.689 684.236 450.872 684.306 449.054 684.271C447.237 684.201 445.524 684.271 443.812 684.691C440.352 685.46 437.067 687.035 434.271 689.239V689.274ZM434.061 688.994C436.857 686.685 440.177 685.005 443.672 684.166C445.42 683.676 447.272 683.606 449.054 683.606C450.837 683.606 452.619 683.501 454.401 683.256C456.184 683.011 457.931 682.731 459.644 682.206C461.356 681.612 463.208 681.402 465.026 681.542C468.695 681.787 472.12 683.326 475.126 685.355C480.927 689.554 486.449 694.662 489.385 701.38C492.216 708.063 492.565 715.83 490.014 722.688C488.721 726.082 486.449 729.161 483.514 731.33C480.578 733.535 477.013 734.794 473.448 735.319C466.319 736.334 458.805 735.669 452.2 732.695C445.524 729.896 439.688 725.347 434.935 719.924C432.593 717.195 430.462 714.221 429.064 710.827C427.77 707.468 427.176 703.759 427.561 700.156C427.91 697.951 428.609 695.817 429.728 693.928C430.846 692.038 432.384 690.394 434.096 689.029L434.061 688.994Z" fill="#D8B49C"/>
<path d="M529.262 627.029C525.977 630.004 522.657 632.978 519.861 636.371C517.065 639.73 514.898 643.684 514.059 647.918C512.487 656.385 515.317 665.797 521.398 671.22C524.509 673.914 528.388 675.594 532.407 676.188C536.356 676.748 540.935 676.468 545.198 676.433C553.726 676.153 562.463 674.789 568.824 670.135C572.074 667.931 574.59 664.957 576.408 661.283C578.295 657.4 579.972 653.516 580.986 649.457C582.034 645.433 582.628 641.27 582.034 637.281C581.475 633.327 579.623 629.584 576.582 626.855C573.577 624.055 569.558 622.306 565.434 620.801C561.275 619.437 557.081 617.688 552.782 617.268C548.484 616.848 544.045 617.688 540.096 619.507C536.112 621.361 532.652 624.16 529.262 627.029ZM529.017 626.75C532.337 623.811 535.797 620.941 539.816 618.947C543.836 616.988 548.379 616.043 552.817 616.393C557.291 616.778 561.519 618.282 565.783 619.472C570.012 620.802 574.276 622.411 577.736 625.315C581.196 628.184 583.572 632.348 584.376 636.756C585.25 641.2 584.83 645.748 583.852 650.087C582.873 654.46 581.161 658.624 579.273 662.648C577.386 666.706 574.451 670.345 570.781 672.934C563.302 678.148 553.971 679.267 545.164 679.442C540.725 679.407 536.252 679.442 531.848 678.638C527.445 677.763 523.286 675.699 520.001 672.62C513.535 666.252 511.298 656.42 513.186 647.743C514.164 643.369 516.471 639.345 519.371 635.987C522.272 632.593 525.627 629.654 528.982 626.75H529.017Z" fill="#D8B49C"/>
<path d="M208.923 852.986C206.826 844.553 209.971 835.246 215.808 829.053C226.397 815.933 237.86 802.987 252.049 793.365C259.598 788.012 270.013 789.061 278.331 790.671C286.474 792.245 294.791 792.595 303.074 793.225C327.224 795.394 353.89 796.479 378.004 795.989C353.959 799.208 327.538 797.984 302.795 796.374C294.442 795.849 286.054 795.569 277.806 794.1C269.698 792.595 260.996 791.196 253.692 796.094C239.887 805.401 228.109 817.682 217.205 830.278C214.375 833.357 211.684 836.611 210.425 840.635C209.062 844.553 208.748 848.822 209.307 852.951H208.958L208.923 852.986Z" fill="#D8B49C"/>
<path d="M439.199 798.089C450.417 795.674 461.286 791.511 471.316 786.367C479.425 782.554 483.688 775.661 488.057 768.348C495.955 756.487 503.993 744.381 511.158 732.1C515.666 724.753 518.742 717.23 520.874 709.043C521.677 705.404 522.831 702.43 520.559 700.086C513.045 695.292 499.17 698.231 494.557 705.754C493.194 715.97 492.111 726.187 485.296 734.654C483.304 737.103 480.683 739.273 477.712 740.567C474.602 741.827 472.4 742.317 470.408 743.996C467.402 746.725 464.327 749.874 461.531 752.988C460.517 754.213 458.735 755.367 457.057 755.682C445.14 756.487 433.153 749.245 426.757 763.625L426.442 763.485C427.596 760.826 429.133 758.272 431.37 756.382C438.535 750.469 448.46 755.088 456.603 753.898C459.469 753.303 460.867 750.399 462.894 748.405C464.921 746.34 466.773 744.136 468.94 742.212C473.483 738.643 479.809 738.153 483.164 732.94C488.336 726.082 490.154 717.16 490.993 708.763C490.783 705.824 492.076 702.885 494.313 700.89C500.883 694.208 521.328 690.219 525.102 701.275C525.696 704.284 524.893 707.188 524.159 709.952C521.957 718.35 518.497 726.397 513.884 733.745C507.978 743.646 501.687 753.303 495.082 762.75C488.197 771.882 483.269 783.323 472.155 788.012C461.88 792.455 449.858 797.389 439.234 798.089H439.199Z" fill="#D8B49C"/>
<path d="M251.28 531.476C256.662 547.046 266.937 562.266 282.489 568.669C298.007 575.491 315.201 569.858 330.474 564.575C362.312 553.484 390.76 535.08 415.818 512.652C428.575 501.701 441.016 490.084 453.179 478.468C471.177 461.254 488.477 441.205 486.974 415.139C486.554 389.947 474.218 365.77 454.262 350.095L454.472 349.815C475.021 364.93 488.547 389.387 489.246 415.034C491.412 441.695 473.554 463.423 455.415 480.707C443.218 492.499 430.916 504.15 418.125 515.276C386.427 543.022 348.682 566.044 306.744 573.427C289.654 576.541 272.18 568.319 262.289 554.253C257.222 547.431 253.517 539.663 250.966 531.546L251.315 531.441L251.28 531.476Z" fill="#D8B49C"/>
<path d="M522.866 707.608C544.045 705.299 565.399 701.975 585.564 695.222C605.939 688.959 624.602 678.148 642.076 666.007L642.321 666.287C618.136 688.014 587.346 701.59 555.159 705.719C544.744 706.943 532.792 708.763 522.901 707.608H522.866Z" fill="#D8B49C"/>
<path d="M515.842 637.001C513.535 641.83 511.718 646.658 510.25 651.452C509.621 653.901 508.887 656.245 508.537 658.729C508.048 661.143 507.733 663.593 507.629 666.042C507.279 670.94 507.594 675.873 508.363 680.842C508.712 683.326 509.306 685.81 510.04 688.259C510.599 690.814 511.543 693.193 512.347 695.782L512.067 695.957C509.236 691.513 507.104 686.615 505.741 681.542C504.343 676.433 503.854 671.115 504.169 665.832C504.483 660.549 505.776 655.37 507.699 650.472C509.656 645.573 512.312 640.955 515.562 636.826L515.842 637.036V637.001Z" fill="#D8B49C"/>
<path d="M620.652 681.367C623.728 693.928 629.739 706.174 628.83 719.434C627.922 736.858 613.768 742.807 598.215 738.923C596.783 738.678 596.713 738.783 596.188 739.728C595.699 740.847 595.385 743.471 594.336 745.851C590.317 754.948 578.854 757.642 570.047 758.411C565.504 758.831 563.896 763.345 563.476 767.369C563.057 770.692 564.49 772.652 564.28 776.815C564.28 781.854 559.772 785.667 556.976 788.746C552.118 794.555 552.817 803.931 549.567 812.259C546.317 820.551 540.76 827.584 534.12 833.007L533.875 832.762C539.991 826.884 545.163 819.781 547.82 811.699C550.685 803.687 549.532 794.31 554.809 787.172C557.326 783.848 561.205 781.189 561.275 776.64C561.17 772.512 559.457 768.103 560.89 763.905C561.799 759.671 564.979 755.542 569.558 755.158C571.689 754.843 573.821 754.703 575.883 754.283C581.72 752.708 588.674 750.504 591.296 744.556C592.694 741.862 592.274 737.558 595.524 736.019C596.608 735.494 597.831 735.634 598.845 735.879C612.614 739.553 625.405 734.864 626.524 719.224C628.236 710.442 621.736 690.324 620.268 681.577L620.618 681.472L620.652 681.367Z" fill="#D8B49C"/>
<path d="M207.734 496.627C216.681 496.907 225.802 497.362 234.365 495.018C237.056 494.213 239.502 492.919 240.795 491.064C243.871 486.376 240.9 480.847 240.551 475.179C238.838 457.72 259.982 458.175 272.109 457.86C277.212 458 282.839 459.714 286.403 463.773C288.5 465.872 288.605 468.951 291.017 470.001C291.89 470.316 293.113 470.316 294.372 470.036C302.724 467.657 309.749 461.254 316.704 455.971L316.948 456.216C312.615 460.449 308.141 464.613 303.109 468.112C299.404 470.526 295.001 473.465 290.318 472.415C288.745 472.065 287.487 470.806 286.753 469.476C284.271 463.738 277.981 461.009 272.039 461.044C266.028 461.149 259.912 461.814 254.006 462.828C251.07 463.423 248.135 464.473 246.177 466.712C241.774 471.506 244.465 478.258 245.059 483.996C246.911 495.228 234.679 498.482 225.872 498.377C219.756 498.482 213.71 497.887 207.664 497.012L207.699 496.662L207.734 496.627Z" fill="#D8B49C"/>
<path d="M367.415 414.474C375.523 404.083 384.47 393.831 390.481 382.145C392.403 378.051 394.43 373.818 393.906 369.479C392.823 364.755 388.279 363.181 385.798 358.073C380.101 347.121 387.476 332.496 399.603 329.942C408.025 328.822 413.023 337.569 416.728 343.377C418.51 346.002 420.467 348.556 422.704 349.116C424.906 349.92 427.666 348.241 429.903 346.142C434.621 341.838 437.976 335.89 441.436 330.187L441.751 330.327C437.976 337.429 432 352.475 422.214 351.32C412.534 348.661 411.241 332.391 400.022 333.091C393.592 334.385 388.839 340.718 387.545 346.946C385.763 354.014 390.376 359.542 394.955 364.301C399.428 370.109 395.933 377.841 392.858 383.439C386.078 394.706 376.746 406.147 367.415 414.439V414.474Z" fill="#D8B49C"/>
</g>
<defs>
<clipPath id="clip0_482_12203">
<rect width="670" height="885" fill="white"/>
</clipPath>
</defs>
</svg>
